[center]
[URL=http://img7.imageshack.us/i/planetdinosaur.jpg/][IMG]http://img7.imageshack.us/img7/7870/planetdinosaur.jpg[/IMG][/URL]
-=-=-=-=-=-=-=-=-=-=-=-


[b]Planet Dinosaur [/b]
-------------------

Season 1 Episode 6 of 6

The Great Survivors 
-------------------

The documentary concludes with a look at dinosaurs' extraordinary ability to adapt to their surroundings, including the nothronychus, a carnivore that gave up eating meat to survive. The film also reveals how despite their success as hunters or foragers, the dinos fell victim to the deadly illness botulism, but 
their ultimate downfall came about when a nine-mile-wide asteroid smashed into the Earth, triggering a cataclysmic chain of events that wiped out 60 per cent of all species on the planet. Last in the series

Category Documentary
Executive Producer Andrew Cohen
Series Producer Nigel Paterson

Cast
Narrator John Hurt
 
h**p://uk.imdb.com/title/tt1998816/
-=-=-=-=-=-=-=-=-=-

[b]File info[/b]

Format                           : AVI
Format/Info                      : Audio Video Interleave
File size                        : 350 MiB
Duration                         : 28mn 30s
Overall bit rate                 : 1 716 Kbps
Writing library                  : VirtualDub build 32842/release

Video
ID                               : 0
Format                           : MPEG-4 Visual
Format profile                   : Simple@L1
Format settings, BVOP            : No
Format settings, QPel            : No
Format settings, GMC             : No warppoints
Format settings, Matrix          : Default (H.263)
Codec ID                         : XVID
Codec ID/Hint                    : XviD
Duration                         : 28mn 30s
Bit rate                         : 1 579 Kbps
Width                            : 720 pixels
Height                           : 420 pixels
Display aspect ratio             : 16:9
Frame rate                       : 25.000 fps
Color space                      : YUV
Chroma subsampling               : 4:2:0
Bit depth                        : 8 bits
Scan type                        : Progressive
Compression mode                 : Lossy
Bits/(Pixel*Frame)               : 0.209
Stream size                      : 322 MiB (92%)
Writing library                  : Lavc52.41.0

Audio
ID                               : 1
Format                           : MPEG Audio
Format version                   : Version 1
Format profile                   : Layer 3
Mode                             : Joint stereo
Mode extension                   : MS Stereo
Codec ID                         : 55
Codec ID/Hint                    : MP3
Duration                         : 28mn 30s
Bit rate mode                    : Constant
Bit rate                         : 128 Kbps
Channel(s)                       : 2 channels
Sampling rate                    : 48.0 KHz
Compression mode                 : Lossy
Stream size                      : 26.1 MiB (7%)
Alignment                        : Split accross interleaves
Interleave, duration             : 40 ms (1.00 video frame)
Interleave, preload duration     : 500 ms

spoken language: Engish

--------------------------------

[b]Screenshots[/b]

[URL=http://img687.imageshack.us/i/bbcplanetdinosaurs01e06.jpg/][IMG]http://img687.imageshack.us/img687/6927/bbcplanetdinosaurs01e06.jpg[/IMG][/URL]

[b]Hash:[/b]
4620F88540441C8221140318F2D9290C8896B5F0

[/center]

